<svg width="140" height="143" viewBox="0 0 140 143" fill="none" xmlns="http://www.w3.org/2000/svg">
<path fill-rule="evenodd" clip-rule="evenodd" d="M138.248 50.1338C133.653 35.6163 124.451 22.9922 112.036 14.1738C99.622 5.35539 84.6719 0.823167 69.4508 1.26371C54.2296 1.70424 39.5666 7.09354 27.6831 16.6152C15.7996 26.1368 7.34321 39.2721 3.5947 54.031C-0.153804 68.79 1.00992 84.3686 6.9096 98.4068C12.8093 112.445 23.1235 124.178 36.2897 131.828C49.4559 139.479 64.7568 142.63 79.8746 140.804C94.9923 138.978 109.103 132.275 120.069 121.71H120.099L120.669 121.14C123.42 118.377 124.962 114.636 124.958 110.738C124.953 106.839 123.403 103.101 120.646 100.345C117.889 97.5878 114.152 96.0372 110.253 96.0328C106.354 96.0284 102.613 97.5707 99.8504 100.321V100.311C94.2151 105.827 87.0941 109.579 79.3591 111.111C71.624 112.642 63.6105 111.885 56.2991 108.932C48.9876 105.979 42.6955 100.959 38.1928 94.4862C33.6901 88.0131 31.1721 80.3678 30.9471 72.4859C30.722 64.604 32.7997 56.8274 36.9257 50.108C41.0517 43.3885 47.0472 38.0176 54.1782 34.6527C61.3093 31.2877 69.2666 30.0746 77.0764 31.1618C84.8861 32.2491 92.2097 35.5895 98.1505 40.7743L100.12 42.7542C101.041 43.6872 101.555 44.9464 101.551 46.2572C101.546 47.5679 101.024 48.8237 100.097 49.7505C99.1702 50.6773 97.9144 51.2 96.6037 51.2043C95.293 51.2087 94.0337 50.6945 93.1007 49.7738L90.3708 47.034L90.2709 47.134C90.2275 47.012 90.1554 46.9023 90.0608 46.814C85.4257 43.3039 79.8902 41.1803 74.0968 40.6897C68.3033 40.199 62.4895 41.3615 57.3302 44.042C52.1708 46.7226 47.8773 50.8114 44.9482 55.8339C42.0191 60.8563 40.5744 66.6065 40.7818 72.417C40.9892 78.2275 42.8402 83.86 46.1199 88.6609C49.3996 93.4617 53.9735 97.234 59.3109 99.5399C64.6483 101.846 70.5302 102.591 76.2739 101.688C82.0176 100.786 87.3877 98.2732 91.7608 94.4416C92.5841 93.5217 93.0359 92.3285 93.0286 91.094C93.0212 89.8595 92.555 88.6719 91.7208 87.7619C89.7509 85.632 86.381 86.192 84.7111 87.5619C81.6664 90.0381 77.9866 91.6079 74.0921 92.0919C70.1976 92.5759 66.2455 91.9546 62.6873 90.2991C59.1291 88.6435 56.1084 86.0204 53.9703 82.7295C51.8323 79.4386 50.663 75.6126 50.5962 71.6887C50.5295 67.7648 51.5678 63.9012 53.5927 60.5394C55.6175 57.1777 58.5472 54.4533 62.047 52.6776C65.5467 50.9019 69.4754 50.1464 73.3842 50.4976C77.2929 50.8488 81.024 52.2925 84.1512 54.6636L84.1811 54.6436L85.951 56.4135C88.7139 59.1641 92.4551 60.7064 96.3537 60.702C100.252 60.6976 103.99 59.147 106.747 56.3902C109.503 53.6335 111.054 49.8958 111.059 45.9972C111.063 42.0986 109.521 38.3574 106.77 35.5945L106.55 35.3746C106.516 35.2172 106.44 35.0721 106.33 34.9546C99.167 28.1001 90.1405 23.5121 80.3814 21.7655C70.6222 20.0188 60.5646 21.1912 51.4689 25.1357C42.3731 29.0802 34.6438 35.6214 29.2494 43.9396C23.8551 52.2578 21.0357 61.983 21.1445 71.8966C21.2532 81.8103 24.2853 91.4713 29.8608 99.6692C35.4364 107.867 43.3074 114.237 52.4875 117.981C61.6676 121.725 71.7484 122.677 81.4669 120.716C91.1853 118.756 100.109 113.971 107.12 106.961C107.135 106.927 107.151 106.893 107.17 106.861C108.073 106.017 109.259 105.541 110.494 105.527C111.73 105.513 112.926 105.962 113.848 106.786C114.769 107.61 115.349 108.748 115.474 109.978C115.598 111.208 115.258 112.439 114.52 113.431C105.388 122.758 93.4712 128.862 80.5665 130.822C67.6618 132.782 54.4697 130.492 42.9807 124.297C31.4916 118.102 22.329 108.339 16.8755 96.4801C11.422 84.6212 9.97339 71.3103 12.7483 58.5559C15.5232 45.8016 22.371 34.2957 32.2585 25.7745C42.1461 17.2533 54.5368 12.1791 67.5611 11.3175C80.5853 10.4559 93.5365 13.8537 104.46 20.9981C115.384 28.1426 123.688 38.6461 128.119 50.9238C128.849 52.9537 130.559 55.9135 134.049 55.6935C134.724 55.6928 135.389 55.5357 135.993 55.2345C136.598 54.9333 137.124 54.4963 137.531 53.9577C137.937 53.419 138.214 52.7935 138.339 52.13C138.463 51.4666 138.432 50.7833 138.248 50.1338Z" stroke="white" stroke-width="1.9999" stroke-miterlimit="10" stroke-linecap="round" stroke-linejoin="round"/>
</svg>
