<svg width="151" height="141" viewBox="0 0 151 141" fill="none" xmlns="http://www.w3.org/2000/svg">
<path d="M0.697567 100.113C0.708201 100.168 0.72497 100.221 0.74756 100.273C0.757558 100.303 0.767557 100.343 0.777555 100.373L12.1859 120.13L12.2159 120.16C12.2359 120.19 12.2559 120.22 12.2859 120.26C12.3245 120.302 12.3681 120.339 12.4158 120.37C12.4458 120.39 12.4658 120.42 12.4958 120.44C12.5076 120.448 12.5217 120.451 12.5358 120.45C12.649 120.513 12.7761 120.547 12.9058 120.55H58.0392L69.2075 139.887L69.2375 139.917C69.2575 139.947 69.2775 139.977 69.3075 140.017C69.3461 140.059 69.3898 140.096 69.4375 140.127C69.4675 140.147 69.4875 140.177 69.5175 140.197C69.5292 140.205 69.5434 140.208 69.5575 140.207C69.6706 140.27 69.7977 140.305 69.9274 140.307H138.367C138.5 140.305 138.631 140.27 138.747 140.207L138.837 140.147C138.922 140.09 138.997 140.019 139.057 139.937C139.067 139.917 139.097 139.907 139.107 139.887L150.516 120.13C150.526 120.11 150.526 120.1 150.536 120.08C150.553 120.048 150.567 120.015 150.576 119.98C150.586 119.94 150.596 119.91 150.606 119.87C150.614 119.834 150.617 119.797 150.616 119.76C150.616 119.74 150.626 119.73 150.626 119.71C150.626 119.69 150.616 119.68 150.616 119.66C150.616 119.62 150.606 119.59 150.606 119.55C150.606 119.51 150.586 119.48 150.576 119.44C150.564 119.406 150.551 119.373 150.536 119.34C150.526 119.32 150.526 119.31 150.516 119.29L127.949 80.2057L139.107 60.8685C139.117 60.8485 139.117 60.8385 139.127 60.8185C139.145 60.787 139.158 60.7534 139.167 60.7185C139.177 60.6785 139.187 60.6485 139.197 60.6085C139.206 60.5725 139.209 60.5355 139.207 60.4986C139.207 60.4786 139.217 60.4686 139.217 60.4486C139.217 60.4286 139.207 60.4186 139.207 60.3986C139.207 60.3586 139.197 60.3286 139.197 60.2886C139.197 60.2486 139.177 60.2186 139.167 60.1786C139.156 60.1446 139.142 60.1112 139.127 60.0786C139.117 60.0586 139.117 60.0486 139.107 60.0286L104.902 0.74732C104.882 0.717324 104.852 0.697327 104.832 0.667331C104.798 0.621957 104.761 0.57856 104.722 0.537351C104.681 0.504018 104.638 0.47393 104.592 0.447364C104.549 0.418129 104.502 0.394606 104.452 0.377374C104.394 0.358244 104.334 0.34485 104.272 0.33738C104.242 0.33738 104.212 0.317383 104.172 0.317383H81.3557C81.3357 0.317383 81.3257 0.327381 81.3057 0.327381C81.2657 0.327381 81.2357 0.33738 81.1957 0.33738L81.0758 0.367375C81.0458 0.377374 81.0058 0.397371 80.9758 0.40737C80.9458 0.417368 80.9458 0.417368 80.9258 0.427367C80.9144 0.439717 80.9008 0.449882 80.8858 0.457362C80.8535 0.477512 80.8233 0.500968 80.7958 0.527352C80.7667 0.551436 80.7399 0.578218 80.7158 0.60734C80.6958 0.637336 80.6658 0.667331 80.6458 0.697327C80.6335 0.708721 80.6233 0.722275 80.6158 0.737321L58.0491 39.8316H35.7324C35.7124 39.8316 35.7024 39.8416 35.6824 39.8416C35.6424 39.8416 35.6124 39.8516 35.5724 39.8516C35.5325 39.8516 35.4925 39.8716 35.4625 39.8816C35.4285 39.8932 35.3951 39.9065 35.3625 39.9216C35.3425 39.9316 35.3325 39.9316 35.3125 39.9416C35.2925 39.9516 35.2925 39.9616 35.2725 39.9716C35.2402 39.9917 35.21 40.0152 35.1825 40.0416C35.1534 40.0656 35.1266 40.0924 35.1025 40.1215C35.0825 40.1515 35.0525 40.1815 35.0325 40.2115C35.0202 40.2229 35.01 40.2365 35.0025 40.2515L0.787554 99.5328C0.773014 99.5646 0.762921 99.5983 0.757558 99.6328C0.736369 99.6846 0.719644 99.7381 0.707565 99.7928C0.691694 99.8446 0.684928 99.8987 0.687568 99.9528C0.685913 100.006 0.68926 100.06 0.697567 100.113ZM103.682 2.01713L136.928 59.5987H116.071L82.8155 2.01713H103.682ZM115.091 99.1129H94.2238L116.061 61.2784H136.928L115.091 99.1129ZM81.3557 2.85701L114.601 60.4386L92.7641 98.273L82.3356 80.1957L93.5039 60.8585C93.5139 60.8385 93.5139 60.8285 93.5239 60.8085C93.5415 60.777 93.555 60.7434 93.5639 60.7085C93.5739 60.6685 93.5839 60.6385 93.5939 60.5985C93.6022 60.5625 93.6056 60.5255 93.6039 60.4886C93.6039 60.4686 93.6139 60.4586 93.6139 60.4386C93.6139 60.4186 93.6039 60.4086 93.6039 60.3886C93.6039 60.3486 93.5939 60.3186 93.5939 60.2786C93.5939 60.2386 93.5739 60.2086 93.5639 60.1686C93.5523 60.1346 93.539 60.1012 93.5239 60.0686C93.5139 60.0486 93.5139 60.0386 93.5039 60.0186L82.0856 40.2615C82.0656 40.2315 82.0356 40.2115 82.0156 40.1815C81.9815 40.1362 81.9447 40.0928 81.9057 40.0516C81.8647 40.0182 81.8213 39.9881 81.7757 39.9616C81.7311 39.9343 81.6843 39.9109 81.6357 39.8916C81.5812 39.872 81.5237 39.8618 81.4657 39.8616C81.4357 39.8616 81.3957 39.8416 81.3657 39.8416H60.0089L81.3557 2.85701ZM58.5491 41.5313H80.8758L91.3143 59.5987H47.6307L37.1922 41.5313H58.5491ZM35.7324 42.3712L46.1609 60.4386L12.9158 118.02L2.4873 99.9528L35.7324 42.3712ZM14.3856 118.86L47.6307 61.2784H91.3143L80.8758 79.3558H58.5491C58.5291 79.3558 58.5191 79.3658 58.4991 79.3658C58.4591 79.3658 58.4291 79.3758 58.3891 79.3758L58.2691 79.4058C58.2391 79.4158 58.1991 79.4358 58.1691 79.4458C58.1391 79.4558 58.1391 79.4558 58.1191 79.4658C58.1077 79.4781 58.0942 79.4883 58.0791 79.4958C58.0468 79.5159 58.0166 79.5394 57.9892 79.5658C57.96 79.5898 57.9333 79.6166 57.9092 79.6458C57.8892 79.6757 57.8592 79.7057 57.8392 79.7357C57.8292 79.7457 57.8092 79.7557 57.8092 79.7757L46.4009 99.5328C46.3863 99.5646 46.3762 99.5983 46.3709 99.6328C46.3497 99.6846 46.333 99.7381 46.3209 99.7928C46.3122 99.8457 46.3089 99.8992 46.3109 99.9528C46.3092 100.006 46.3126 100.06 46.3209 100.113C46.3315 100.168 46.3483 100.221 46.3709 100.273C46.3809 100.303 46.3909 100.343 46.4009 100.373L57.0793 118.86H14.3856ZM137.907 138.617H71.4172L81.8457 120.55H148.336L137.907 138.617ZM69.9574 137.777L48.1206 99.9528L58.5591 81.8754L80.3959 119.7L69.9574 137.777ZM148.336 118.86H81.8457L60.0089 81.0355H80.8758L92.0442 100.373L92.0742 100.403C92.0941 100.438 92.1175 100.472 92.1441 100.503C92.1828 100.545 92.2264 100.582 92.2741 100.613C92.3041 100.633 92.3241 100.663 92.3541 100.683C92.3658 100.691 92.38 100.694 92.3941 100.693C92.5073 100.756 92.6344 100.79 92.7641 100.793H115.581C115.714 100.79 115.844 100.756 115.961 100.693L116.051 100.633C116.136 100.576 116.21 100.505 116.271 100.423C116.281 100.403 116.311 100.393 116.321 100.373L126.999 81.8754L148.336 118.86Z" fill="white"/>
</svg>
