<svg width="140" height="123" viewBox="0 0 140 123" fill="none" xmlns="http://www.w3.org/2000/svg">
<path d="M0.020425 108.783C0.0325637 108.835 0.0492805 108.885 0.070398 108.933C0.0758401 108.964 0.0859484 108.995 0.100388 109.023L7.37824 121.641L7.40823 121.671C7.42837 121.703 7.45183 121.733 7.47822 121.761C7.51821 121.801 7.55819 121.831 7.59818 121.871C7.62817 121.891 7.63817 121.921 7.66817 121.931C7.6799 121.939 7.69404 121.942 7.70813 121.941C7.81668 121.996 7.93619 122.027 8.05803 122.031H131.892C132.013 122.027 132.133 121.996 132.241 121.941C132.271 121.921 132.291 121.901 132.321 121.881C132.402 121.83 132.471 121.761 132.521 121.681C132.531 121.661 132.551 121.651 132.571 121.631L139.859 109.013C139.869 109.003 139.869 108.983 139.879 108.973C139.898 108.942 139.912 108.909 139.919 108.873C139.929 108.843 139.939 108.803 139.949 108.773C139.957 108.741 139.961 108.707 139.959 108.673C139.959 108.653 139.969 108.643 139.969 108.623C139.969 108.603 139.959 108.593 139.959 108.573C139.959 108.553 139.949 108.503 139.949 108.473C139.949 108.443 139.929 108.403 139.919 108.373C139.908 108.339 139.895 108.306 139.879 108.273C139.869 108.263 139.869 108.243 139.859 108.233L77.9474 0.984648C77.93 0.95926 77.9099 0.9358 77.8875 0.914663C77.8562 0.870068 77.8192 0.829738 77.7775 0.794687C77.6991 0.736959 77.6154 0.686747 77.5276 0.644716C77.4755 0.629004 77.4219 0.618949 77.3676 0.614722C77.3376 0.614722 77.3076 0.594727 77.2677 0.594727H62.7019C62.6819 0.594727 62.672 0.604724 62.652 0.604724C62.632 0.604724 62.582 0.614722 62.552 0.614722L62.442 0.644716C62.4077 0.655421 62.3743 0.668793 62.3421 0.684708C62.3303 0.69266 62.3162 0.696202 62.3021 0.694706C62.2907 0.707056 62.2771 0.71722 62.2621 0.7247C62.2337 0.742244 62.2069 0.762322 62.1821 0.784688C62.153 0.808771 62.1262 0.835551 62.1021 0.864672C62.0821 0.894666 62.0621 0.914662 62.0421 0.944656C62.0298 0.956049 62.0196 0.969603 62.0121 0.984648L0.0903812 108.243C0.0759416 108.272 0.0658333 108.302 0.0603912 108.333C0.0392585 108.382 0.0225413 108.432 0.0104182 108.483C0.00211188 108.533 -0.00124679 108.583 0.000411342 108.633C0.0104084 108.683 0.0104279 108.733 0.020425 108.783ZM76.8178 2.16441L137.83 107.843H31.2812L37.6593 96.8056H117.346C117.469 96.8046 117.59 96.77 117.696 96.7056C117.706 96.6956 117.726 96.7056 117.736 96.6956C117.761 96.6781 117.785 96.658 117.806 96.6356C117.848 96.6017 117.888 96.565 117.926 96.5256C117.956 96.488 117.983 96.4479 118.006 96.4056C118.036 96.3676 118.056 96.3231 118.066 96.2757C118.086 96.2249 118.096 96.1705 118.096 96.1157C118.096 96.0857 118.116 96.0557 118.116 96.0157C118.116 95.9957 118.106 95.9857 118.106 95.9657C118.1 95.9149 118.09 95.8647 118.076 95.8158C118.063 95.7644 118.047 95.7142 118.026 95.6658C118.016 95.6558 118.016 95.6358 118.006 95.6258L64.0515 2.16441H76.8178ZM131.452 120.461H9.42763L62.7019 28.1792L69.0801 39.217L29.2318 108.233C29.2238 108.245 29.2203 108.259 29.2218 108.273C29.2007 108.322 29.1839 108.372 29.1718 108.423C29.157 108.472 29.147 108.522 29.1418 108.573C29.1418 108.593 29.1318 108.603 29.1318 108.623C29.1318 108.643 29.1518 108.683 29.1518 108.723C29.157 108.777 29.167 108.831 29.1818 108.883C29.2018 108.933 29.2218 108.973 29.2418 109.013C29.2661 109.055 29.2928 109.095 29.3218 109.133C29.3618 109.173 29.4018 109.203 29.4417 109.243C29.4717 109.263 29.4817 109.293 29.5117 109.303C29.5217 109.313 29.5417 109.303 29.5517 109.313C29.6596 109.372 29.779 109.406 29.9016 109.413H137.81L131.452 120.461ZM101.411 95.2359H38.5591L69.9898 40.7967L101.411 95.2359ZM62.7019 2.95426L115.976 95.2359H103.23L63.3917 26.2196C63.3794 26.2082 63.3692 26.1947 63.3617 26.1796C63.3318 26.1396 63.2918 26.0997 63.2618 26.0597C63.2265 26.0211 63.1861 25.9874 63.1418 25.9597C63.1304 25.9473 63.1169 25.9372 63.1018 25.9297C63.0735 25.9152 63.0432 25.9051 63.0118 25.8997C62.9635 25.8786 62.9133 25.8618 62.8619 25.8497C62.7624 25.8364 62.6615 25.8364 62.562 25.8497C62.5106 25.8618 62.4604 25.8786 62.412 25.8997C62.3807 25.9051 62.3504 25.9152 62.322 25.9297C62.3107 25.942 62.2971 25.9522 62.2821 25.9597C62.2421 25.9897 62.2021 26.0297 62.1621 26.0597C62.1208 26.0923 62.0867 26.1331 62.0621 26.1796C62.0498 26.191 62.0396 26.2046 62.0322 26.2196L8.07805 119.681L1.69992 108.643L62.7019 2.95426Z" fill="white"/>
</svg>
