<svg width="141" height="123" viewBox="0 0 141 123" fill="none" xmlns="http://www.w3.org/2000/svg">
<path d="M116.898 101.962C116.908 101.952 116.908 101.932 116.918 101.922C116.938 101.891 116.951 101.857 116.958 101.822C116.968 101.792 116.978 101.752 116.988 101.722C116.997 101.689 117 101.655 116.998 101.622C116.998 101.602 117.008 101.592 117.008 101.572C117.008 101.552 116.998 101.542 116.998 101.522C116.998 101.502 116.988 101.452 116.988 101.422C116.988 101.392 116.968 101.352 116.958 101.322C116.948 101.288 116.934 101.254 116.918 101.222C116.908 101.212 116.908 101.192 116.898 101.182L105.682 81.7569H128.104C128.226 81.7531 128.346 81.7224 128.454 81.6669C128.484 81.6469 128.504 81.6269 128.534 81.6069C128.615 81.5561 128.683 81.4878 128.734 81.4069C128.744 81.3869 128.764 81.3769 128.784 81.3569L140.14 61.692C140.15 61.682 140.15 61.662 140.16 61.652C140.179 61.6214 140.193 61.5875 140.2 61.552C140.21 61.522 140.22 61.4821 140.23 61.4521C140.238 61.4194 140.242 61.3857 140.24 61.3521C140.24 61.3321 140.25 61.3221 140.25 61.3021C140.25 61.2821 140.24 61.2721 140.24 61.2521C140.24 61.2321 140.23 61.1821 140.23 61.1521C140.23 61.1221 140.21 61.0821 140.2 61.0522C140.189 61.0178 140.176 60.9844 140.16 60.9522C140.15 60.9422 140.15 60.9222 140.14 60.9122L128.784 41.2472C128.767 41.2218 128.747 41.1984 128.724 41.1773C128.693 41.1325 128.656 41.0921 128.614 41.0573C128.572 41.025 128.529 40.9949 128.484 40.9673C128.444 40.9414 128.4 40.9212 128.354 40.9073C128.303 40.8877 128.249 40.8776 128.194 40.8773C128.164 40.8773 128.134 40.8573 128.104 40.8573H105.682L116.898 21.4323C116.908 21.4223 116.908 21.4023 116.918 21.3923C116.938 21.3617 116.951 21.3278 116.958 21.2924C116.968 21.2624 116.978 21.2224 116.988 21.1924C116.997 21.1597 117 21.126 116.998 21.0924C116.998 21.0724 117.008 21.0624 117.008 21.0424C117.008 21.0224 116.998 21.0124 116.998 20.9924C116.998 20.9724 116.988 20.9224 116.988 20.8925C116.988 20.8625 116.968 20.8225 116.958 20.7925C116.948 20.7582 116.934 20.7247 116.918 20.6925C116.908 20.6825 116.908 20.6625 116.898 20.6525L105.552 0.987557C105.535 0.96217 105.515 0.938711 105.492 0.917575C105.462 0.875205 105.429 0.835108 105.392 0.797605C105.351 0.76529 105.307 0.735255 105.262 0.707629C105.222 0.681703 105.178 0.661514 105.132 0.647644C105.081 0.628069 105.027 0.617908 104.972 0.617652C104.942 0.617652 104.913 0.597656 104.883 0.597656H82.1806C82.1606 0.597656 82.1506 0.607654 82.1306 0.607654C82.1106 0.607654 82.0606 0.617652 82.0306 0.617652L81.9207 0.647644C81.889 0.656703 81.8586 0.670164 81.8306 0.687633C81.8189 0.695585 81.8048 0.699127 81.7907 0.697631L81.7607 0.727623C81.7323 0.745134 81.7055 0.765213 81.6808 0.787608C81.6516 0.811689 81.6248 0.838468 81.6007 0.867588C81.5807 0.89758 81.5608 0.917575 81.5408 0.947567C81.5285 0.958959 81.5183 0.972512 81.5108 0.987557L70.2948 20.4126L59.0788 0.987557C59.0613 0.96217 59.0411 0.938711 59.0187 0.917575C58.9848 0.875142 58.9481 0.835059 58.9088 0.797605C58.8712 0.767531 58.831 0.740771 58.7888 0.717625C58.7485 0.691699 58.7048 0.671512 58.6589 0.657641C58.6081 0.637182 58.5537 0.626988 58.4989 0.627649C58.4689 0.627649 58.4389 0.607654 58.409 0.607654H35.707C35.687 0.607654 35.677 0.617652 35.657 0.617652C35.637 0.617652 35.587 0.627649 35.557 0.627649L35.4471 0.657641C35.4154 0.666701 35.385 0.680162 35.357 0.697631C35.3453 0.705583 35.3312 0.709125 35.3171 0.707629C35.3057 0.719978 35.2921 0.730142 35.2771 0.737621C35.2487 0.755132 35.2219 0.77521 35.1972 0.797605C35.1681 0.821686 35.1412 0.848466 35.1171 0.877585C35.0971 0.907577 35.0772 0.927572 35.0572 0.957565C35.0449 0.968957 35.0347 0.982509 35.0272 0.997554L23.6812 20.6625C23.6668 20.6908 23.6566 20.7212 23.6512 20.7525C23.6301 20.8009 23.6133 20.8511 23.6012 20.9025C23.5878 21.002 23.5878 21.1028 23.6012 21.2024C23.6133 21.2538 23.6301 21.304 23.6512 21.3523C23.6566 21.3837 23.6668 21.414 23.6812 21.4423L34.8972 40.8673H12.4752C12.4552 40.8673 12.4452 40.8773 12.4252 40.8773C12.4052 40.8773 12.3552 40.8873 12.3252 40.8873L12.2153 40.9173C12.1836 40.9264 12.1532 40.9398 12.1252 40.9573C12.1152 40.9673 12.0953 40.9673 12.0853 40.9773L12.0553 41.0073C12.0269 41.0248 12.0002 41.0449 11.9754 41.0673C11.9463 41.0914 11.9194 41.1181 11.8953 41.1473C11.8753 41.1773 11.8554 41.1972 11.8354 41.2272C11.8231 41.2386 11.8129 41.2522 11.8054 41.2672L0.44943 60.9322C0.434992 60.9605 0.424853 60.9908 0.419412 61.0222C0.39828 61.0706 0.381503 61.1207 0.36938 61.1721C0.35604 61.2717 0.35604 61.3725 0.36938 61.472C0.381503 61.5234 0.39828 61.5736 0.419412 61.622C0.424853 61.6533 0.434992 61.6837 0.44943 61.712L11.8054 81.377L11.8354 81.4069C11.8556 81.4393 11.879 81.4694 11.9053 81.4969C11.9453 81.5369 11.9853 81.5669 12.0253 81.6069C12.0553 81.6269 12.0654 81.6569 12.0953 81.6669C12.1071 81.6748 12.1212 81.6784 12.1352 81.6769C12.2438 81.7324 12.3633 81.7631 12.4851 81.7669H34.9072L23.7012 101.192C23.6868 101.22 23.6767 101.251 23.6712 101.282C23.6501 101.33 23.6333 101.38 23.6212 101.432C23.6078 101.531 23.6078 101.632 23.6212 101.732C23.6333 101.783 23.6501 101.833 23.6712 101.882C23.6767 101.913 23.6868 101.943 23.7012 101.972L35.0472 121.637L35.0772 121.667C35.0974 121.699 35.1208 121.729 35.1471 121.757C35.1871 121.797 35.2271 121.827 35.2671 121.867C35.2971 121.887 35.3072 121.917 35.3371 121.927C35.3489 121.935 35.363 121.938 35.377 121.937C35.4856 121.992 35.6051 122.023 35.7269 122.027H58.429C58.5508 122.023 58.6703 121.992 58.7788 121.937C58.8088 121.917 58.8288 121.897 58.8587 121.877C58.9395 121.826 59.008 121.757 59.0587 121.677C59.0687 121.657 59.0887 121.647 59.1087 121.627L70.3248 102.202L81.5408 121.627L81.5708 121.657C81.591 121.689 81.6144 121.719 81.6407 121.747C81.6807 121.787 81.7207 121.817 81.7607 121.857C81.7907 121.877 81.8006 121.907 81.8306 121.917C81.8423 121.925 81.8566 121.928 81.8706 121.927C81.9792 121.982 82.0987 122.013 82.2205 122.017H104.923C105.044 122.013 105.164 121.982 105.272 121.927C105.302 121.907 105.322 121.887 105.352 121.867C105.433 121.816 105.502 121.747 105.552 121.667C105.562 121.647 105.582 121.637 105.602 121.617L116.898 101.962ZM104.413 120.447H83.5201L93.9663 102.352H114.859L104.413 120.447ZM57.9291 120.447H37.0365L59.3786 81.7569H80.2712L57.9291 120.447ZM13.7947 80.1773L24.241 62.0819H68.9153L58.4689 80.1773H13.7947ZM12.4352 43.2067L22.8815 61.3021L12.4352 79.3975L1.9888 61.3021L12.4352 43.2067ZM25.2306 21.0324L35.677 2.93706L58.0191 41.6271L47.5728 59.7225L25.2306 21.0324ZM82.1706 2.94705L92.6169 21.0424L70.2848 59.7325L59.8384 41.6371L82.1706 2.94705ZM104.413 2.15726L114.859 20.2526H93.9663L83.5201 2.15726H104.413ZM127.665 42.4269L138.111 60.5223H93.4366L82.9902 42.4269H127.665ZM81.6207 43.2067L91.6072 60.5123H71.6243L81.6207 43.2067ZM68.9153 60.5123H48.9323L58.9188 43.2067L68.9153 60.5123ZM70.2748 62.8717L80.2612 80.1773H60.2783L70.2748 62.8717ZM71.6343 62.0919H92.5169L114.849 100.782H93.9563L71.6343 62.0919ZM94.3362 62.0919H138.101L127.655 80.1873H104.773L94.3362 62.0919ZM82.9902 40.8473L93.9764 21.8222H114.869L103.883 40.8473H82.9902ZM58.9188 40.0675L37.0365 2.15726H57.9291L69.3751 21.9722L58.9188 40.0675ZM46.2033 60.5123H24.231L13.7847 42.4169H35.7569L46.2033 60.5123ZM57.5593 81.7569L35.677 119.667L25.2306 101.572L36.6666 81.7569H57.5593ZM81.6207 82.5367L92.6068 101.562L82.1606 119.657L71.1745 100.622L81.6207 82.5367Z" fill="white"/>
</svg>
