<svg width="122" height="141" viewBox="0 0 122 141" fill="none" xmlns="http://www.w3.org/2000/svg">
<path d="M121.922 35.3226L101.226 23.3745L82.0189 34.4627V12.2762L61.3126 0.328125L40.6162 12.2762V34.4527L21.4095 23.3645L0.703125 35.3226V59.2288L19.9098 70.317L0.703125 81.4053V105.311L21.3995 117.26L40.6062 106.171V128.348L61.3026 140.296L81.9989 128.348V106.171L101.206 117.26L121.922 105.311V81.4053L102.715 70.317L121.922 59.2288V35.3226ZM101.226 25.0942L119.692 35.7525L82.1389 57.4991L82.0189 36.1824L101.226 25.0942ZM80.5292 37.0423L80.6491 58.3689L62.0624 69.1372V24.6643L80.5292 14.006V37.0423ZM42.1059 14.006L60.5627 24.6643V69.1372L42.1059 58.4489V14.006ZM21.3995 25.0942L40.6062 36.1824V57.5691L2.94278 35.7525L21.3995 25.0942ZM2.19292 58.3689V37.0523L39.8663 58.8689L21.4095 69.4572L2.19292 58.3689ZM2.19292 104.452V83.135L20.6496 93.7933V115.11L2.19292 104.452ZM2.94278 81.8352L21.7794 70.9669L41.366 59.7287L59.8228 70.417L21.4095 92.4935L2.94278 81.8352ZM60.5627 138.146L42.1059 127.488V105.311L60.5627 94.6532V138.146ZM42.1059 103.592L40.9861 104.242L22.1494 115.12V93.8033L60.5627 71.7268V92.9335L42.1059 103.592ZM61.3126 23.3745L42.8558 12.7162L61.3126 2.05785L79.7693 12.7162L61.3126 23.3745ZM80.5191 127.488L62.0624 138.146V94.6532L80.5191 105.311V127.488ZM100.476 115.11L81.639 104.232L80.5191 103.582L62.0624 92.9235V71.7168L100.476 93.7933V115.11ZM120.432 104.452L101.975 115.11V93.6133L120.432 83.125V104.452ZM119.672 81.8352L101.066 92.4135L62.8023 70.427L81.389 59.6587L99.7358 70.317L100.356 70.677L100.726 70.8969L100.846 70.9669L119.672 81.8352ZM120.432 58.3689L101.226 69.4572L82.8887 58.7989L120.442 37.0523V58.3689H120.432Z" fill="white"/>
</svg>
